
git
<svg xmlns="http://www.w3.org/2000/svg" viewBox="0 0 448 512"><!--!Font Awesome Free 6.6.0 by @fontawesome - https://fontawesome.com License - https://fontawesome.com/license/free Copyright 2024 Fonticons, Inc.--><path d="M439.6 236.1L244 40.5a28.9 28.9 0 0 0 -40.8 0l-40.7 40.6 51.5 51.5c27.1-9.1 52.7 16.8 43.4 43.7l49.7 49.7c34.2-11.8 61.2 31 35.5 56.7-26.5 26.5-70.2-2.9-56-37.3L240.2 199v121.9c25.3 12.5 22.3 41.9 9.1 55a34.3 34.3 0 0 1 -48.6 0c-17.6-17.6-11.1-46.9 11.3-56v-123c-20.8-8.5-24.6-30.7-18.6-45L142.6 101 8.5 235.1a28.9 28.9 0 0 0 0 40.8l195.6 195.6a28.9 28.9 0 0 0 40.8 0l194.7-194.7a28.9 28.9 0 0 0 0-40.8z"/></svg>

github
<svg xmlns="http://www.w3.org/2000/svg" viewBox="0 0 496 512"><!--!Font Awesome Free 6.6.0 by @fontawesome - https://fontawesome.com License - https://fontawesome.com/license/free Copyright 2024 Fonticons, Inc.--><path d="M165.9 397.4c0 2-2.3 3.6-5.2 3.6-3.3 .3-5.6-1.3-5.6-3.6 0-2 2.3-3.6 5.2-3.6 3-.3 5.6 1.3 5.6 3.6zm-31.1-4.5c-.7 2 1.3 4.3 4.3 4.9 2.6 1 5.6 0 6.2-2s-1.3-4.3-4.3-5.2c-2.6-.7-5.5 .3-6.2 2.3zm44.2-1.7c-2.9 .7-4.9 2.6-4.6 4.9 .3 2 2.9 3.3 5.9 2.6 2.9-.7 4.9-2.6 4.6-4.6-.3-1.9-3-3.2-5.9-2.9zM244.8 8C106.1 8 0 113.3 0 252c0 110.9 69.8 205.8 169.5 239.2 12.8 2.3 17.3-5.6 17.3-12.1 0-6.2-.3-40.4-.3-61.4 0 0-70 15-84.7-29.8 0 0-11.4-29.1-27.8-36.6 0 0-22.9-15.7 1.6-15.4 0 0 24.9 2 38.6 25.8 21.9 38.6 58.6 27.5 72.9 20.9 2.3-16 8.8-27.1 16-33.7-55.9-6.2-112.3-14.3-112.3-110.5 0-27.5 7.6-41.3 23.6-58.9-2.6-6.5-11.1-33.3 2.6-67.9 20.9-6.5 69 27 69 27 20-5.6 41.5-8.5 62.8-8.5s42.8 2.9 62.8 8.5c0 0 48.1-33.6 69-27 13.7 34.7 5.2 61.4 2.6 67.9 16 17.7 25.8 31.5 25.8 58.9 0 96.5-58.9 104.2-114.8 110.5 9.2 7.9 17 22.9 17 46.4 0 33.7-.3 75.4-.3 83.6 0 6.5 4.6 14.4 17.3 12.1C428.2 457.8 496 362.9 496 252 496 113.3 383.5 8 244.8 8zM97.2 352.9c-1.3 1-1 3.3 .7 5.2 1.6 1.6 3.9 2.3 5.2 1 1.3-1 1-3.3-.7-5.2-1.6-1.6-3.9-2.3-5.2-1zm-10.8-8.1c-.7 1.3 .3 2.9 2.3 3.9 1.6 1 3.6 .7 4.3-.7 .7-1.3-.3-2.9-2.3-3.9-2-.6-3.6-.3-4.3 .7zm32.4 35.6c-1.6 1.3-1 4.3 1.3 6.2 2.3 2.3 5.2 2.6 6.5 1 1.3-1.3 .7-4.3-1.3-6.2-2.2-2.3-5.2-2.6-6.5-1zm-11.4-14.7c-1.6 1-1.6 3.6 0 5.9 1.6 2.3 4.3 3.3 5.6 2.3 1.6-1.3 1.6-3.9 0-6.2-1.4-2.3-4-3.3-5.6-2z"/></svg>

sass
<svg xmlns="http://www.w3.org/2000/svg" viewBox="0 0 640 512"><!--!Font Awesome Free 6.6.0 by @fontawesome - https://fontawesome.com License - https://fontawesome.com/license/free Copyright 2024 Fonticons, Inc.--><path d="M301.8 378.9c-.3 .6-.6 1.1 0 0zm249.1-87a131.2 131.2 0 0 0 -58 13.5c-5.9-11.9-12-22.3-13-30.1-1.2-9.1-2.5-14.5-1.1-25.3s7.7-26.1 7.6-27.2-1.4-6.6-14.3-6.7-24 2.5-25.3 5.9a122.8 122.8 0 0 0 -5.3 19.1c-2.3 11.7-25.8 53.5-39.1 75.3-4.4-8.5-8.1-16-8.9-22-1.2-9.1-2.5-14.5-1.1-25.3s7.7-26.1 7.6-27.2-1.4-6.6-14.3-6.7-24 2.5-25.3 5.9-2.7 11.4-5.3 19.1-33.9 77.3-42.1 95.4c-4.2 9.2-7.8 16.6-10.4 21.6-.4 .8-.7 1.3-.9 1.7 .3-.5 .5-1 .5-.8-2.2 4.3-3.5 6.7-3.5 6.7v.1c-1.7 3.2-3.6 6.1-4.5 6.1-.6 0-1.9-8.4 .3-19.9 4.7-24.2 15.8-61.8 15.7-63.1-.1-.7 2.1-7.2-7.3-10.7-9.1-3.3-12.4 2.2-13.2 2.2s-1.4 2-1.4 2 10.1-42.4-19.4-42.4c-18.4 0-44 20.2-56.6 38.5-7.9 4.3-25 13.6-43 23.5-6.9 3.8-14 7.7-20.7 11.4-.5-.5-.9-1-1.4-1.5-35.8-38.2-101.9-65.2-99.1-116.5 1-18.7 7.5-67.8 127.1-127.4 98-48.8 176.4-35.4 189.8-5.6 19.4 42.5-41.9 121.6-143.7 133-38.8 4.3-59.2-10.7-64.3-16.3-5.3-5.9-6.1-6.2-8.1-5.1-3.3 1.8-1.2 7 0 10.1 3 7.9 15.5 21.9 36.8 28.9 18.7 6.1 64.2 9.5 119.2-11.8 61.8-23.8 109.9-90.1 95.8-145.6C386.5 18.3 293-.2 204.6 31.2c-52.7 18.7-109.7 48.1-150.7 86.4-48.7 45.6-56.5 85.3-53.3 101.9 11.4 58.9 92.6 97.3 125.1 125.7-1.6 .9-3.1 1.7-4.5 2.5-16.3 8.1-78.2 40.5-93.7 74.7-17.5 38.8 2.9 66.6 16.3 70.4 41.8 11.6 84.6-9.3 107.6-43.6s20.2-79.1 9.6-99.5c-.1-.3-.3-.5-.4-.8 4.2-2.5 8.5-5 12.8-7.5 8.3-4.9 16.4-9.4 23.5-13.3-4 10.8-6.9 23.8-8.4 42.6-1.8 22 7.3 50.5 19.1 61.7 5.2 4.9 11.5 5 15.4 5 13.8 0 20-11.4 26.9-25 8.5-16.6 16-35.9 16-35.9s-9.4 52.2 16.3 52.2c9.4 0 18.8-12.1 23-18.3v.1s.2-.4 .7-1.2c1-1.5 1.5-2.4 1.5-2.4v-.3c3.8-6.5 12.1-21.4 24.6-46 16.2-31.8 31.7-71.5 31.7-71.5a201.2 201.2 0 0 0 6.2 25.8c2.8 9.5 8.7 19.9 13.4 30-3.8 5.2-6.1 8.2-6.1 8.2a.3 .3 0 0 0 .1 .2c-3 4-6.4 8.3-9.9 12.5-12.8 15.2-28 32.6-30 37.6-2.4 5.9-1.8 10.3 2.8 13.7 3.4 2.6 9.4 3 15.7 2.5 11.5-.8 19.6-3.6 23.5-5.4a82.2 82.2 0 0 0 20.2-10.6c12.5-9.2 20.1-22.4 19.4-39.8-.4-9.6-3.5-19.2-7.3-28.2 1.1-1.6 2.3-3.3 3.4-5C434.8 301.7 450.1 270 450.1 270a201.2 201.2 0 0 0 6.2 25.8c2.4 8.1 7.1 17 11.4 25.7-18.6 15.1-30.1 32.6-34.1 44.1-7.4 21.3-1.6 30.9 9.3 33.1 4.9 1 11.9-1.3 17.1-3.5a79.5 79.5 0 0 0 21.6-11.1c12.5-9.2 24.6-22.1 23.8-39.6-.3-7.9-2.5-15.8-5.4-23.4 15.7-6.6 36.1-10.2 62.1-7.2 55.7 6.5 66.6 41.3 64.5 55.8s-13.8 22.6-17.7 25-5.1 3.3-4.8 5.1c.5 2.6 2.3 2.5 5.6 1.9 4.6-.8 29.2-11.8 30.3-38.7 1.6-34-31.1-71.4-89-71.1zm-429.2 144.7c-18.4 20.1-44.2 27.7-55.3 21.3C54.6 451 59.3 421.4 82 400c13.8-13 31.6-25 43.4-32.4 2.7-1.6 6.6-4 11.4-6.9 .8-.5 1.2-.7 1.2-.7 .9-.6 1.9-1.1 2.9-1.7 8.3 30.4 .3 57.2-19.1 78.3zm134.4-91.4c-6.4 15.7-19.9 55.7-28.1 53.6-7-1.8-11.3-32.3-1.4-62.3 5-15.1 15.6-33.1 21.9-40.1 10.1-11.3 21.2-14.9 23.8-10.4 3.5 5.9-12.2 49.4-16.2 59.2zm111 53c-2.7 1.4-5.2 2.3-6.4 1.6-.9-.5 1.1-2.4 1.1-2.4s13.9-14.9 19.4-21.7c3.2-4 6.9-8.7 10.9-13.9 0 .5 .1 1 .1 1.6-.1 17.9-17.3 30-25.1 34.8zm85.6-19.5c-2-1.4-1.7-6.1 5-20.7 2.6-5.7 8.6-15.3 19-24.5a36.2 36.2 0 0 1 1.9 10.8c-.1 22.5-16.2 30.9-25.9 34.4z"/></svg>

java
<svg xmlns="http://www.w3.org/2000/svg" viewBox="0 0 384 512"><!--!Font Awesome Free 6.6.0 by @fontawesome - https://fontawesome.com License - https://fontawesome.com/license/free Copyright 2024 Fonticons, Inc.--><path d="M277.7 312.9c9.8-6.7 23.4-12.5 23.4-12.5s-38.7 7-77.2 10.2c-47.1 3.9-97.7 4.7-123.1 1.3-60.1-8 33-30.1 33-30.1s-36.1-2.4-80.6 19c-52.5 25.4 130 37 224.5 12.1zm-85.4-32.1c-19-42.7-83.1-80.2 0-145.8C296 53.2 242.8 0 242.8 0c21.5 84.5-75.6 110.1-110.7 162.6-23.9 35.9 11.7 74.4 60.2 118.2zm114.6-176.2c.1 0-175.2 43.8-91.5 140.2 24.7 28.4-6.5 54-6.5 54s62.7-32.4 33.9-72.9c-26.9-37.8-47.5-56.6 64.1-121.3zm-6.1 270.5a12.2 12.2 0 0 1 -2 2.6c128.3-33.7 81.1-118.9 19.8-97.3a17.3 17.3 0 0 0 -8.2 6.3 70.5 70.5 0 0 1 11-3c31-6.5 75.5 41.5-20.6 91.4zM348 437.4s14.5 11.9-15.9 21.2c-57.9 17.5-240.8 22.8-291.6 .7-18.3-7.9 16-19 26.8-21.3 11.2-2.4 17.7-2 17.7-2-20.3-14.3-131.3 28.1-56.4 40.2C232.8 509.4 401 461.3 348 437.4zM124.4 396c-78.7 22 47.9 67.4 148.1 24.5a185.9 185.9 0 0 1 -28.2-13.8c-44.7 8.5-65.4 9.1-106 4.5-33.5-3.8-13.9-15.2-13.9-15.2zm179.8 97.2c-78.7 14.8-175.8 13.1-233.3 3.6 0-.1 11.8 9.7 72.4 13.6 92.2 5.9 233.8-3.3 237.1-46.9 0 0-6.4 16.5-76.2 29.7zM260.6 353c-59.2 11.4-93.5 11.1-136.8 6.6-33.5-3.5-11.6-19.7-11.6-19.7-86.8 28.8 48.2 61.4 169.5 25.9a60.4 60.4 0 0 1 -21.1-12.8z"/></svg>

typescript
<svg viewBox="0 0 14 14" xmlns="http://www.w3.org/2000/svg"><path d="m.9999998 7.0000066v5.9999944h12.0000002v-12.00000195h-12.0000002v6.00000755zm7.359375-.2109464v.5390661h-1.546875v4.9218757h-1.265625v-4.9218757h-1.5468751v-1.078119h4.3593751zm3.0468752-.4734396c.192187.037467.407812.089067.482812.1171999l.126563.0516v.5859327c0 .3234397-.0094.5859328-.01875.5859328-.0094 0-.107812-.0516-.220312-.1125332-.421875-.2390665-1.096875-.328133-1.509375-.2062532-.09844.028133-.24375.1171999-.31875.1921865-.1124998.1078666-.1359374.1734399-.1359374.3468797 0 .1874932.023437.2390664.178125.384373.098437.093733.4640624.3093731.8203124.4875062.75.3703064 1.129687.6843726 1.303125 1.0734256.154687.3468794.159375 1.0781324.0094 1.4062524-.140625.309373-.45.623439-.754687.768759-.646875.30468-1.7015627.332813-2.5265627.06093l-.2953125-.0984v-1.303119l.2343751.168747c.3046604.220306.6984105.356253 1.1109105.384373.4124996.02813.7171876-.04693.9046876-.225.117188-.107866.140625-.168746.140625-.346879 0-.342187-.196875-.520307-1.0031252-.9140529-.7125-.3515701-.9374999-.5109432-1.1484374-.8203162-.46875-.6796928-.3281251-1.7203051.2999999-2.1937447.534375-.4078129 1.4203127-.5578128 2.3203127-.3937596z"/></svg>
